<svg width="351" height="61" viewBox="0 0 351 61" fill="none" xmlns="http://www.w3.org/2000/svg">
<g clip-path="url(#clip0_1392_19799)">
<path d="M19.7697 21.54L58.6128 36.3955C58.6128 36.3955 -40.5504 39.8519 78.5173 60.201H0C0 60.201 52.1427 39.3483 19.7697 21.54Z" fill="#23258A"/>
<path d="M51.6266 13.5281C51.6266 20.9444 45.6732 26.9645 38.3494 26.9645C31.0257 26.9645 25.0723 20.9444 25.0723 13.5281C25.0723 6.11183 31.0032 0.0917969 38.3494 0.0917969C45.6957 0.0917969 51.6266 6.11183 51.6266 13.5281Z" fill="#222389"/>
<path d="M51.6266 13.5281C51.6266 20.9444 45.6732 26.9645 38.3494 26.9645C31.0257 26.9645 25.0723 20.9444 25.0723 13.5281C25.0723 6.11183 31.0032 0.0917969 38.3494 0.0917969C45.6957 0.0917969 51.6266 6.11183 51.6266 13.5281Z" stroke="white" stroke-width="0.162518"/>
<path d="M26.9143 46.4203C27.4085 46.0312 27.9477 45.8252 28.5767 45.8252C29.8348 45.8252 30.4863 46.3059 30.4863 47.2673V49.8538H29.4978V47.2901C29.4978 46.9697 29.408 46.7408 29.2507 46.6035C29.0934 46.4661 28.8238 46.3974 28.4419 46.3974C27.9252 46.3974 27.431 46.6034 26.9143 47.0384V49.8767H25.9258V45.9168H26.9143V46.4432V46.4203Z" fill="#23258A"/>
<path d="M33.1137 46.4661V49.8538H32.1252V46.4661H31.3164V45.9167H32.1252V45.5734C32.1252 44.7265 32.6419 44.3145 33.6978 44.3145C34.0347 44.3145 34.2819 44.3144 34.4391 44.3602V45.0011C34.4391 45.0011 34.2369 44.9554 34.1471 44.9554C34.0347 44.9554 33.9449 44.9554 33.8326 44.9554C33.5854 44.9554 33.4057 45.0011 33.2934 45.0927C33.1811 45.1843 33.1137 45.3445 33.1137 45.5734V45.9167H34.1695V46.4661H33.1137Z" fill="#23258A"/>
<path d="M37.1802 45.8256C37.5846 45.8256 37.9441 45.8714 38.281 45.963C38.5956 46.0545 38.8876 46.1919 39.1123 46.3521C39.3369 46.5352 39.5167 46.7412 39.629 46.993C39.7638 47.2448 39.8087 47.5424 39.8087 47.8628C39.8087 48.1833 39.7413 48.5037 39.629 48.7555C39.4942 49.0073 39.3145 49.2362 39.0898 49.3964C38.8651 49.5796 38.5731 49.694 38.2586 49.7856C37.9441 49.8771 37.5846 49.9229 37.1802 49.9229C36.7758 49.9229 36.4389 49.8771 36.1243 49.7856C35.8098 49.694 35.5178 49.5567 35.2931 49.3964C35.0685 49.2133 34.8887 49.0073 34.7539 48.7555C34.6191 48.5037 34.5742 48.2062 34.5742 47.8628C34.5742 47.5195 34.6416 47.2448 34.7539 46.9701C34.8887 46.7183 35.0685 46.4894 35.2931 46.3292C35.5178 46.1461 35.8098 46.0316 36.1243 45.9401C36.4389 45.8485 36.7983 45.8027 37.1802 45.8027M37.1802 49.4193C37.6745 49.4193 38.0789 49.282 38.3709 49.0302C38.663 48.7784 38.8202 48.3893 38.8202 47.8857C38.8202 47.6339 38.7753 47.405 38.7079 47.2219C38.618 47.0388 38.5057 46.8786 38.3709 46.7412C38.2136 46.6039 38.0564 46.5123 37.8542 46.4665C37.652 46.3979 37.4498 46.375 37.2027 46.375C36.9556 46.375 36.7309 46.3979 36.5512 46.4665C36.349 46.5352 36.1917 46.6268 36.0345 46.7641C35.8997 46.9014 35.7874 47.0617 35.6975 47.2448C35.6301 47.4279 35.5852 47.6568 35.5852 47.9086C35.5852 48.4122 35.7424 48.7784 36.0345 49.0531C36.3265 49.3049 36.7085 49.4422 37.2252 49.4422" fill="#23258A"/>
<path d="M43.8531 46.5592C43.6959 46.5363 43.4937 46.5134 43.2466 46.5134C42.7523 46.5134 42.303 46.6965 41.9436 47.0857V49.8782H40.9551V45.9183H41.9436V46.4905C42.3479 46.0556 42.8422 45.8496 43.4038 45.8496C43.4712 45.8496 43.5386 45.8496 43.6285 45.8496C43.6959 45.8496 43.7857 45.8496 43.8531 45.8496V46.5592Z" fill="#23258A"/>
<path d="M52.0973 49.8539H51.1088V47.3132C51.1088 46.9927 51.0414 46.7409 50.9066 46.6036C50.7718 46.4662 50.5471 46.3976 50.2326 46.3976C49.7609 46.3976 49.2891 46.6036 48.8173 47.0385V49.8768H47.8288V47.336C47.8288 47.0156 47.7614 46.7867 47.6266 46.6265C47.4918 46.4891 47.2672 46.4204 46.9526 46.4204C46.4584 46.4204 45.9866 46.6265 45.5373 47.0614V49.8997H44.5488V45.9398H45.5373V46.4662C45.9866 46.0771 46.5033 45.8711 47.0874 45.8711C47.9187 45.8711 48.4354 46.1 48.66 46.5807C48.8622 46.4204 49.0195 46.306 49.1767 46.2144C49.334 46.1229 49.4688 46.0542 49.6036 46.0084C49.7384 45.9627 49.8732 45.9169 49.9855 45.9169C50.0978 45.9169 50.2326 45.9169 50.3674 45.9169C51.5132 45.9169 52.0973 46.3976 52.0973 47.3589V49.9455V49.8539Z" fill="#23258A"/>
<path d="M57.0633 49.4662C56.5466 49.7867 55.8951 49.9698 55.1088 49.9698C54.8392 49.9698 54.5921 49.9469 54.345 49.8782C54.0978 49.8095 53.9181 49.7409 53.7384 49.6493C53.5587 49.5578 53.4239 49.4204 53.334 49.2831C53.2441 49.1457 53.1992 48.9855 53.1992 48.8253C53.1992 47.9097 54.3225 47.4519 56.5691 47.4519H57.0633C57.0633 47.2688 57.0633 47.1085 57.0184 46.9712C56.9734 46.8339 56.951 46.7194 56.8611 46.6279C56.7712 46.5363 56.6365 46.4676 56.4567 46.4219C56.277 46.3761 56.0299 46.3532 55.7154 46.3532C54.8167 46.3532 54.3674 46.5821 54.345 47.0628H53.3565C53.4239 46.2387 54.2326 45.8496 55.7603 45.8496C56.1197 45.8496 56.4343 45.8496 56.7263 45.9183C57.0184 45.9869 57.243 46.0327 57.4452 46.1472C57.6474 46.2616 57.7822 46.399 57.8945 46.605C58.0069 46.811 58.0518 47.0399 58.0518 47.3374V49.8782H57.0633V49.4891V49.4662ZM57.0633 48.8253V47.9326H56.3893C54.9515 47.9326 54.2326 48.2073 54.2326 48.7795C54.2326 48.9855 54.345 49.1457 54.5472 49.2373C54.7493 49.3518 55.0414 49.3975 55.4233 49.3975C55.5806 49.3975 55.7378 49.3975 55.8951 49.3518C56.0523 49.3289 56.2096 49.2831 56.3444 49.2373C56.5017 49.1915 56.614 49.1229 56.7488 49.0542C56.8836 48.9855 56.9734 48.894 57.0633 48.8024" fill="#23258A"/>
<path d="M61.7125 49.8544C61.6001 49.8544 61.4878 49.8772 61.3755 49.9001C61.2632 49.9001 61.1284 49.9001 61.016 49.9001C60.7015 49.9001 60.4544 49.8772 60.2747 49.8086C60.095 49.7628 59.9602 49.6712 59.8703 49.5797C59.7804 49.4881 59.7355 49.3508 59.713 49.1906C59.713 49.0303 59.6906 48.8701 59.6906 48.687V46.4438H58.9941V45.8944H59.6906V44.9102H60.6791V45.8944H61.5777V46.4438H60.6791V48.7328C60.6791 48.8701 60.6791 48.9845 60.724 49.0761C60.7465 49.1677 60.7914 49.2134 60.8363 49.2592C60.8813 49.305 60.9486 49.3279 61.016 49.3508C61.0834 49.3737 61.1733 49.3508 61.2407 49.3508C61.3306 49.3508 61.4204 49.3508 61.4878 49.3508C61.5777 49.3508 61.6451 49.3508 61.7349 49.3279V49.8544H61.7125Z" fill="#23258A"/>
<path d="M63.5315 45.1387H62.543V44.4062H63.5315V45.1387ZM63.5315 49.854H62.543V45.8941H63.5315V49.854Z" fill="#23258A"/>
<path d="M67.2623 49.9454C66.8803 49.9454 66.5209 49.8996 66.2064 49.808C65.8919 49.7165 65.5998 49.5791 65.3751 49.4189C65.1505 49.2358 64.9708 49.0298 64.836 48.778C64.7012 48.5262 64.6562 48.2286 64.6562 47.8853C64.6562 47.5419 64.7236 47.2673 64.836 46.9926C64.9483 46.7408 65.1505 46.5119 65.3751 46.3517C65.5998 46.1685 65.8919 46.0541 66.2064 45.9625C66.5209 45.871 66.8803 45.8252 67.2623 45.8252C67.5768 45.8252 67.8688 45.8481 68.1384 45.9168C68.408 45.9854 68.6327 46.0541 68.8124 46.1685C69.0146 46.283 69.1718 46.4203 69.2842 46.5577C69.3965 46.7179 69.4864 46.901 69.5088 47.0841H68.5203C68.5203 46.9697 68.4754 46.8552 68.3855 46.7637C68.3181 46.6721 68.2283 46.5806 68.116 46.5348C68.0036 46.4661 67.8688 46.4203 67.7116 46.3974C67.5543 46.3517 67.4195 46.3517 67.2623 46.3517C67.0151 46.3517 66.7905 46.3746 66.6108 46.4432C66.4086 46.5119 66.2513 46.6034 66.094 46.7408C65.9593 46.8781 65.8469 47.0384 65.7571 47.2215C65.6672 47.4046 65.6447 47.6335 65.6447 47.8853C65.6447 48.3889 65.7795 48.7551 66.0716 49.0298C66.3636 49.2816 66.7456 49.4189 67.2398 49.4189C67.3971 49.4189 67.5543 49.4189 67.6891 49.3731C67.8464 49.3502 67.9587 49.3044 68.0935 49.2358C68.2058 49.1671 68.2957 49.0984 68.3631 49.0069C68.4305 48.9153 68.4754 48.8009 68.4979 48.6864H69.4864C69.4414 48.8924 69.374 49.0756 69.2392 49.2358C69.1044 49.396 68.9472 49.5333 68.745 49.6249C68.5428 49.7394 68.3181 49.808 68.0486 49.8767C67.8014 49.9225 67.5094 49.9683 67.2173 49.9683" fill="#23258A"/>
<path d="M72.3833 49.9467C70.8557 49.9467 70.0694 49.5346 70.002 48.6648H70.9904C70.9904 49.1455 71.4622 49.3973 72.3608 49.3973C72.7877 49.3973 73.1022 49.3515 73.3044 49.2142C73.5066 49.0997 73.6189 48.9395 73.6189 48.7564C73.6189 48.6648 73.6189 48.5962 73.5515 48.5275C73.5066 48.4588 73.4392 48.413 73.3044 48.3673C73.1921 48.3215 73.0348 48.2757 72.8102 48.2299C72.608 48.1841 72.3159 48.1384 71.9789 48.0697C71.6419 48.001 71.3724 47.9552 71.1252 47.8866C70.9006 47.8179 70.6984 47.7492 70.5411 47.6806C70.3839 47.589 70.2715 47.4974 70.2041 47.3601C70.1367 47.2457 70.0918 47.0854 70.0918 46.9023C70.0918 46.7421 70.1367 46.5818 70.2491 46.4445C70.3389 46.3072 70.4737 46.1927 70.6535 46.0783C70.8332 45.9867 71.0578 45.8952 71.305 45.8494C71.5745 45.8036 71.8441 45.7578 72.1811 45.7578C73.6414 45.7578 74.3827 46.124 74.4052 46.8565H73.4167C73.3718 46.4674 72.9899 46.2614 72.2261 46.2614C72.0688 46.2614 71.9115 46.2614 71.7767 46.2843C71.6419 46.2843 71.5072 46.3301 71.4173 46.3758C71.3274 46.4216 71.2376 46.4674 71.1702 46.5361C71.1028 46.6047 71.0803 46.6734 71.0803 46.765C71.0803 46.8336 71.0803 46.9023 71.1252 46.9481C71.1252 46.9939 71.2151 47.0396 71.305 47.0854C71.3948 47.1312 71.5521 47.177 71.7543 47.1999C71.9565 47.2457 72.2485 47.2914 72.608 47.3601C72.9449 47.4059 73.237 47.4746 73.4841 47.5432C73.7312 47.6119 73.9334 47.6806 74.1132 47.7721C74.2704 47.8637 74.4052 47.9781 74.4951 48.0926C74.5849 48.207 74.6299 48.3673 74.6299 48.5733C74.6299 48.7564 74.5849 48.9166 74.4726 49.0539C74.3603 49.2142 74.2255 49.3286 74.0233 49.4431C73.8211 49.5575 73.5965 49.6491 73.3044 49.7178C73.0348 49.7864 72.7203 49.8093 72.3833 49.8093" fill="#23258A"/>
</g>
<path d="M346.514 60.1774C345.303 60.1774 344.337 59.8861 343.616 59.3034C342.895 58.7208 342.535 57.9311 342.535 56.9344V56.7734C342.535 56.6968 342.558 56.6354 342.604 56.5894C342.665 56.5281 342.734 56.4974 342.811 56.4974H344.789C344.866 56.4974 344.927 56.5281 344.973 56.5894C345.034 56.6354 345.065 56.6968 345.065 56.7734V56.8884C345.065 57.2564 345.203 57.5631 345.479 57.8084C345.77 58.0538 346.123 58.1764 346.537 58.1764C346.936 58.1764 347.25 58.0614 347.48 57.8314C347.71 57.6014 347.825 57.3101 347.825 56.9574C347.825 56.6508 347.725 56.3978 347.526 56.1984C347.327 55.9838 347.112 55.8228 346.882 55.7154C346.652 55.6081 346.238 55.4318 345.64 55.1864C344.766 54.8491 344.045 54.4198 343.478 53.8984C342.926 53.3771 342.65 52.6028 342.65 51.5754C342.65 50.5021 342.987 49.6664 343.662 49.0684C344.352 48.4551 345.28 48.1484 346.445 48.1484C347.641 48.1484 348.584 48.4704 349.274 49.1144C349.979 49.7431 350.332 50.5941 350.332 51.6674C350.332 51.7441 350.301 51.8131 350.24 51.8744C350.194 51.9204 350.133 51.9434 350.056 51.9434H348.124C348.047 51.9434 347.978 51.9204 347.917 51.8744C347.871 51.8131 347.848 51.7441 347.848 51.6674V51.5294C347.848 51.1614 347.718 50.8548 347.457 50.6094C347.212 50.3641 346.897 50.2414 346.514 50.2414C346.115 50.2414 345.793 50.3718 345.548 50.6324C345.318 50.8778 345.203 51.1768 345.203 51.5294C345.203 51.8208 345.295 52.0661 345.479 52.2654C345.663 52.4648 345.87 52.6258 346.1 52.7484C346.33 52.8558 346.713 53.0244 347.25 53.2544C347.894 53.5151 348.431 53.7758 348.86 54.0364C349.305 54.2818 349.688 54.6421 350.01 55.1174C350.347 55.5774 350.516 56.1524 350.516 56.8424C350.516 57.8698 350.156 58.6824 349.435 59.2804C348.714 59.8784 347.741 60.1774 346.514 60.1774Z" fill="#222389"/>
<path d="M337.087 60.2235C335.829 60.2235 334.833 59.8862 334.097 59.2115C333.376 58.5369 333.016 57.6245 333.016 56.4745V51.8285C333.016 50.7092 333.376 49.8122 334.097 49.1375C334.833 48.4475 335.829 48.1025 337.087 48.1025C338.344 48.1025 339.341 48.4399 340.077 49.1145C340.813 49.7739 341.181 50.6172 341.181 51.6445V51.9665C341.181 52.0432 341.15 52.1122 341.089 52.1735C341.043 52.2195 340.981 52.2425 340.905 52.2425L338.789 52.3345C338.605 52.3345 338.513 52.2425 338.513 52.0585V51.8285C338.513 51.4452 338.375 51.1155 338.099 50.8395C337.838 50.5482 337.501 50.4025 337.087 50.4025C336.673 50.4025 336.335 50.5559 336.075 50.8625C335.814 51.1692 335.684 51.5602 335.684 52.0355V56.2905C335.684 56.7659 335.814 57.1569 336.075 57.4635C336.335 57.7702 336.673 57.9235 337.087 57.9235C337.501 57.9235 337.838 57.7855 338.099 57.5095C338.375 57.2182 338.513 56.8732 338.513 56.4745V56.2445C338.513 56.1679 338.536 56.1065 338.582 56.0605C338.643 55.9992 338.712 55.9685 338.789 55.9685L340.905 55.9915C340.981 55.9915 341.043 56.0222 341.089 56.0835C341.15 56.1295 341.181 56.1909 341.181 56.2675V56.6815C341.181 57.7395 340.813 58.5982 340.077 59.2575C339.341 59.9015 338.344 60.2235 337.087 60.2235Z" fill="#222389"/>
<path d="M329.662 46.6762C329.187 46.6762 328.796 46.5228 328.489 46.2162C328.183 45.9095 328.029 45.5185 328.029 45.0432C328.029 44.5678 328.183 44.1768 328.489 43.8702C328.796 43.5635 329.187 43.4102 329.662 43.4102C330.138 43.4102 330.521 43.5635 330.812 43.8702C331.119 44.1768 331.272 44.5678 331.272 45.0432C331.272 45.5185 331.119 45.9095 330.812 46.2162C330.506 46.5228 330.122 46.6762 329.662 46.6762ZM328.627 60.0392C328.551 60.0392 328.482 60.0162 328.42 59.9702C328.374 59.9088 328.351 59.8398 328.351 59.7632V48.5622C328.351 48.4855 328.374 48.4242 328.42 48.3782C328.482 48.3168 328.551 48.2862 328.627 48.2862H330.743C330.82 48.2862 330.881 48.3168 330.927 48.3782C330.989 48.4242 331.019 48.4855 331.019 48.5622V59.7632C331.019 59.8398 330.989 59.9088 330.927 59.9702C330.881 60.0162 330.82 60.0392 330.743 60.0392H328.627Z" fill="#222389"/>
<path d="M326.691 49.8962C326.691 49.9729 326.66 50.0419 326.599 50.1032C326.553 50.1492 326.491 50.1722 326.415 50.1722H324.989C324.912 50.1722 324.874 50.2106 324.874 50.2872V56.3132C324.874 56.8499 324.973 57.2256 325.173 57.4402C325.372 57.6396 325.671 57.7316 326.07 57.7162H326.231C326.307 57.7162 326.369 57.7469 326.415 57.8082C326.476 57.8542 326.507 57.9156 326.507 57.9922V59.7632C326.507 59.8399 326.476 59.9089 326.415 59.9702C326.369 60.0162 326.307 60.0392 326.231 60.0392H325.449C324.406 60.0392 323.616 59.8476 323.08 59.4642C322.558 59.0809 322.298 58.3602 322.298 57.3022V50.2872C322.298 50.2106 322.259 50.1722 322.183 50.1722H321.378C321.301 50.1722 321.232 50.1492 321.171 50.1032C321.125 50.0419 321.102 49.9729 321.102 49.8962V48.5622C321.102 48.4856 321.125 48.4242 321.171 48.3782C321.232 48.3169 321.301 48.2862 321.378 48.2862H322.183C322.259 48.2862 322.298 48.2479 322.298 48.1712V45.6412C322.298 45.5646 322.321 45.5032 322.367 45.4572C322.428 45.3959 322.497 45.3652 322.574 45.3652H324.598C324.674 45.3652 324.736 45.3959 324.782 45.4572C324.843 45.5032 324.874 45.5646 324.874 45.6412V48.1712C324.874 48.2479 324.912 48.2862 324.989 48.2862H326.415C326.491 48.2862 326.553 48.3169 326.599 48.3782C326.66 48.4242 326.691 48.4856 326.691 48.5622V49.8962Z" fill="#222389"/>
<path d="M315.797 48.1025C317.009 48.1025 317.99 48.4552 318.741 49.1605C319.493 49.8659 319.868 50.7935 319.868 51.9435V59.7635C319.868 59.8402 319.838 59.9092 319.776 59.9705C319.73 60.0165 319.669 60.0395 319.592 60.0395H317.476C317.4 60.0395 317.331 60.0165 317.269 59.9705C317.223 59.9092 317.2 59.8402 317.2 59.7635V59.3265C317.2 59.2805 317.185 59.2499 317.154 59.2345C317.124 59.2192 317.093 59.2345 317.062 59.2805C316.526 59.9092 315.744 60.2235 314.716 60.2235C313.842 60.2235 313.068 59.9782 312.393 59.4875C311.734 58.9815 311.404 58.0692 311.404 56.7505C311.404 55.3705 311.803 54.3892 312.6 53.8065C313.413 53.2239 314.509 52.9325 315.889 52.9325H317.085C317.162 52.9325 317.2 52.8942 317.2 52.8175V52.2195C317.2 51.6675 317.062 51.2305 316.786 50.9085C316.51 50.5712 316.165 50.4025 315.751 50.4025C315.429 50.4025 315.161 50.5099 314.946 50.7245C314.732 50.9239 314.601 51.1999 314.555 51.5525C314.54 51.7365 314.44 51.8285 314.256 51.8285H312.025C311.841 51.8285 311.757 51.7365 311.772 51.5525C311.849 50.5099 312.255 49.6742 312.991 49.0455C313.743 48.4169 314.678 48.1025 315.797 48.1025ZM315.452 58.0155C315.912 58.0155 316.319 57.8699 316.671 57.5785C317.024 57.2872 317.2 56.8809 317.2 56.3595V55.0485C317.2 54.9719 317.162 54.9335 317.085 54.9335H315.889C315.368 54.9335 314.946 55.0792 314.624 55.3705C314.302 55.6465 314.141 56.0529 314.141 56.5895C314.141 57.0649 314.264 57.4252 314.509 57.6705C314.755 57.9005 315.069 58.0155 315.452 58.0155Z" fill="#222389"/>
<path d="M306.735 48.1025C307.732 48.1025 308.483 48.4552 308.989 49.1605C309.51 49.8505 309.771 50.8165 309.771 52.0585V59.7635C309.771 59.8402 309.74 59.9092 309.679 59.9705C309.633 60.0165 309.572 60.0395 309.495 60.0395H307.402C307.325 60.0395 307.256 60.0165 307.195 59.9705C307.149 59.9092 307.126 59.8402 307.126 59.7635V52.2425C307.126 51.6599 307.011 51.2075 306.781 50.8855C306.551 50.5635 306.237 50.4025 305.838 50.4025C305.409 50.4025 305.071 50.5635 304.826 50.8855C304.581 51.2075 304.458 51.6522 304.458 52.2195V59.7635C304.458 59.8402 304.427 59.9092 304.366 59.9705C304.32 60.0165 304.259 60.0395 304.182 60.0395H302.089C302.012 60.0395 301.943 60.0165 301.882 59.9705C301.836 59.9092 301.813 59.8402 301.813 59.7635V52.2425C301.813 51.6599 301.69 51.2075 301.445 50.8855C301.215 50.5635 300.908 50.4025 300.525 50.4025C300.096 50.4025 299.758 50.5635 299.513 50.8855C299.268 51.2075 299.145 51.6522 299.145 52.2195V59.7635C299.145 59.8402 299.114 59.9092 299.053 59.9705C299.007 60.0165 298.946 60.0395 298.869 60.0395H296.776C296.699 60.0395 296.63 60.0165 296.569 59.9705C296.523 59.9092 296.5 59.8402 296.5 59.7635V48.5625C296.5 48.4859 296.523 48.4245 296.569 48.3785C296.63 48.3172 296.699 48.2865 296.776 48.2865H298.869C298.946 48.2865 299.007 48.3172 299.053 48.3785C299.114 48.4245 299.145 48.4859 299.145 48.5625V48.9305C299.145 48.9765 299.16 49.0072 299.191 49.0225C299.222 49.0379 299.252 49.0225 299.283 48.9765C299.59 48.6699 299.935 48.4475 300.318 48.3095C300.701 48.1715 301.077 48.1025 301.445 48.1025C302.58 48.1025 303.415 48.5855 303.952 49.5515C303.998 49.6129 304.067 49.5899 304.159 49.4825C304.466 48.9919 304.849 48.6392 305.309 48.4245C305.784 48.2099 306.26 48.1025 306.735 48.1025Z" fill="#222389"/>
<path d="M294.096 48.1484C294.51 48.1484 294.832 48.2251 295.062 48.3784C295.185 48.4551 295.231 48.5701 295.2 48.7234L294.832 50.8624C294.817 51.0464 294.709 51.1001 294.51 51.0234C294.295 50.9621 294.096 50.9314 293.912 50.9314C293.728 50.9314 293.559 50.9544 293.406 51.0004C292.977 51.0618 292.624 51.3071 292.348 51.7364C292.087 52.1504 291.957 52.6488 291.957 53.2314V59.7404C291.957 59.8171 291.926 59.8861 291.865 59.9474C291.819 59.9934 291.758 60.0164 291.681 60.0164H289.565C289.488 60.0164 289.419 59.9934 289.358 59.9474C289.312 59.8861 289.289 59.8171 289.289 59.7404V48.5624C289.289 48.4858 289.312 48.4244 289.358 48.3784C289.419 48.3171 289.488 48.2864 289.565 48.2864H291.681C291.758 48.2864 291.819 48.3171 291.865 48.3784C291.926 48.4244 291.957 48.4858 291.957 48.5624V49.6204C291.957 49.6818 291.972 49.7201 292.003 49.7354C292.034 49.7354 292.057 49.7048 292.072 49.6434C292.486 48.6468 293.161 48.1484 294.096 48.1484Z" fill="#222389"/>
<path d="M283.272 60.2235C281.999 60.2235 280.995 59.8862 280.259 59.2115C279.538 58.5369 279.178 57.6245 279.178 56.4745V51.8515C279.178 50.7169 279.546 49.8122 280.282 49.1375C281.018 48.4475 282.014 48.1025 283.272 48.1025C284.544 48.1025 285.549 48.4475 286.285 49.1375C287.021 49.8122 287.389 50.7169 287.389 51.8515V56.4745C287.389 57.6245 287.021 58.5369 286.285 59.2115C285.564 59.8862 284.56 60.2235 283.272 60.2235ZM283.272 57.9005C283.701 57.9005 284.046 57.7549 284.307 57.4635C284.583 57.1569 284.721 56.7582 284.721 56.2675V52.0355C284.721 51.5602 284.583 51.1692 284.307 50.8625C284.046 50.5559 283.701 50.4025 283.272 50.4025C282.842 50.4025 282.497 50.5559 282.237 50.8625C281.976 51.1539 281.846 51.5449 281.846 52.0355V56.2675C281.846 56.7582 281.976 57.1569 282.237 57.4635C282.497 57.7549 282.842 57.9005 283.272 57.9005Z" fill="#222389"/>
<path d="M277.428 48.2863C277.505 48.2863 277.566 48.317 277.612 48.3783C277.674 48.4243 277.704 48.4856 277.704 48.5623V49.9193C277.704 49.996 277.674 50.065 277.612 50.1263C277.566 50.1723 277.505 50.1953 277.428 50.1953H276.002C275.926 50.1953 275.887 50.2336 275.887 50.3103V59.7633C275.887 59.84 275.857 59.909 275.795 59.9703C275.749 60.0163 275.688 60.0393 275.611 60.0393H273.518C273.442 60.0393 273.373 60.0163 273.311 59.9703C273.265 59.909 273.242 59.84 273.242 59.7633V50.3103C273.242 50.2336 273.204 50.1953 273.127 50.1953H272.391C272.315 50.1953 272.246 50.1723 272.184 50.1263C272.138 50.065 272.115 49.996 272.115 49.9193V48.5623C272.115 48.4856 272.138 48.4243 272.184 48.3783C272.246 48.317 272.315 48.2863 272.391 48.2863H273.127C273.204 48.2863 273.242 48.248 273.242 48.1713V47.5963C273.242 46.2163 273.557 45.2426 274.185 44.6753C274.814 44.108 275.818 43.832 277.198 43.8473H277.382C277.459 43.8473 277.52 43.878 277.566 43.9393C277.628 43.9853 277.658 44.0466 277.658 44.1233L277.612 45.6873C277.612 45.764 277.582 45.833 277.52 45.8943C277.474 45.9403 277.413 45.9633 277.336 45.9633H277.221C276.761 45.9786 276.424 46.132 276.209 46.4233C275.995 46.6993 275.887 47.1286 275.887 47.7113V48.1713C275.887 48.248 275.926 48.2863 276.002 48.2863H277.428Z" fill="#222389"/>
<path d="M267.598 48.1025C268.594 48.1025 269.346 48.4399 269.852 49.1145C270.373 49.7739 270.634 50.7169 270.634 51.9435V59.7635C270.634 59.8402 270.603 59.9092 270.542 59.9705C270.496 60.0165 270.434 60.0395 270.358 60.0395H268.242C268.165 60.0395 268.096 60.0165 268.035 59.9705C267.989 59.9092 267.966 59.8402 267.966 59.7635V52.1505C267.966 51.5985 267.851 51.1692 267.621 50.8625C267.391 50.5559 267.061 50.4025 266.632 50.4025C266.187 50.4025 265.842 50.5635 265.597 50.8855C265.351 51.2075 265.229 51.6522 265.229 52.2195V59.7635C265.229 59.8402 265.198 59.9092 265.137 59.9705C265.091 60.0165 265.029 60.0395 264.953 60.0395H262.837C262.76 60.0395 262.691 60.0165 262.63 59.9705C262.584 59.9092 262.561 59.8402 262.561 59.7635V48.5625C262.561 48.4859 262.584 48.4245 262.63 48.3785C262.691 48.3172 262.76 48.2865 262.837 48.2865H264.953C265.029 48.2865 265.091 48.3172 265.137 48.3785C265.198 48.4245 265.229 48.4859 265.229 48.5625V49.0225C265.229 49.0685 265.244 49.0992 265.275 49.1145C265.321 49.1145 265.367 49.0839 265.413 49.0225C265.934 48.4092 266.662 48.1025 267.598 48.1025Z" fill="#222389"/>
<path d="M257.878 60.0395C257.801 60.0395 257.732 60.0165 257.671 59.9705C257.625 59.9091 257.602 59.8401 257.602 59.7635V44.2155C257.602 44.1388 257.625 44.0775 257.671 44.0315C257.732 43.9701 257.801 43.9395 257.878 43.9395H259.994C260.07 43.9395 260.132 43.9701 260.178 44.0315C260.239 44.0775 260.27 44.1388 260.27 44.2155V59.7635C260.27 59.8401 260.239 59.9091 260.178 59.9705C260.132 60.0165 260.07 60.0395 259.994 60.0395H257.878Z" fill="#222389"/>
<path d="M246.276 48.2863C246.353 48.2863 246.414 48.317 246.46 48.3783C246.521 48.4243 246.552 48.4856 246.552 48.5623V49.9193C246.552 49.996 246.521 50.065 246.46 50.1263C246.414 50.1723 246.353 50.1953 246.276 50.1953H244.85C244.773 50.1953 244.735 50.2336 244.735 50.3103V59.7633C244.735 59.84 244.704 59.909 244.643 59.9703C244.597 60.0163 244.536 60.0393 244.459 60.0393H242.366C242.289 60.0393 242.22 60.0163 242.159 59.9703C242.113 59.909 242.09 59.84 242.09 59.7633V50.3103C242.09 50.2336 242.052 50.1953 241.975 50.1953H241.239C241.162 50.1953 241.093 50.1723 241.032 50.1263C240.986 50.065 240.963 49.996 240.963 49.9193V48.5623C240.963 48.4856 240.986 48.4243 241.032 48.3783C241.093 48.317 241.162 48.2863 241.239 48.2863H241.975C242.052 48.2863 242.09 48.248 242.09 48.1713V47.5963C242.09 46.2163 242.404 45.2426 243.033 44.6753C243.662 44.108 244.666 43.832 246.046 43.8473H246.23C246.307 43.8473 246.368 43.878 246.414 43.9393C246.475 43.9853 246.506 44.0466 246.506 44.1233L246.46 45.6873C246.46 45.764 246.429 45.833 246.368 45.8943C246.322 45.9403 246.261 45.9633 246.184 45.9633H246.069C245.609 45.9786 245.272 46.132 245.057 46.4233C244.842 46.6993 244.735 47.1286 244.735 47.7113V48.1713C244.735 48.248 244.773 48.2863 244.85 48.2863H246.276Z" fill="#222389"/>
<path d="M235.496 60.2235C234.224 60.2235 233.219 59.8862 232.483 59.2115C231.763 58.5369 231.402 57.6245 231.402 56.4745V51.8515C231.402 50.7169 231.77 49.8122 232.506 49.1375C233.242 48.4475 234.239 48.1025 235.496 48.1025C236.769 48.1025 237.773 48.4475 238.509 49.1375C239.245 49.8122 239.613 50.7169 239.613 51.8515V56.4745C239.613 57.6245 239.245 58.5369 238.509 59.2115C237.789 59.8862 236.784 60.2235 235.496 60.2235ZM235.496 57.9005C235.926 57.9005 236.271 57.7549 236.531 57.4635C236.807 57.1569 236.945 56.7582 236.945 56.2675V52.0355C236.945 51.5602 236.807 51.1692 236.531 50.8625C236.271 50.5559 235.926 50.4025 235.496 50.4025C235.067 50.4025 234.722 50.5559 234.461 50.8625C234.201 51.1539 234.07 51.5449 234.07 52.0355V56.2675C234.07 56.7582 234.201 57.1569 234.461 57.4635C234.722 57.7549 235.067 57.9005 235.496 57.9005Z" fill="#222389"/>
<path d="M222.585 60.0395C222.508 60.0395 222.439 60.0165 222.378 59.9705C222.332 59.9091 222.309 59.8401 222.309 59.7635V44.2155C222.309 44.1388 222.332 44.0775 222.378 44.0315C222.439 43.9701 222.508 43.9395 222.585 43.9395H224.701C224.777 43.9395 224.839 43.9701 224.885 44.0315C224.946 44.0775 224.977 44.1388 224.977 44.2155V59.7635C224.977 59.8401 224.946 59.9091 224.885 59.9705C224.839 60.0165 224.777 60.0395 224.701 60.0395H222.585Z" fill="#222389"/>
<path d="M216.383 60.2235C215.11 60.2235 214.106 59.8862 213.37 59.2115C212.649 58.5369 212.289 57.6245 212.289 56.4745V51.8515C212.289 50.7169 212.657 49.8122 213.393 49.1375C214.129 48.4475 215.126 48.1025 216.383 48.1025C217.656 48.1025 218.66 48.4475 219.396 49.1375C220.132 49.8122 220.5 50.7169 220.5 51.8515V56.4745C220.5 57.6245 220.132 58.5369 219.396 59.2115C218.675 59.8862 217.671 60.2235 216.383 60.2235ZM216.383 57.9005C216.812 57.9005 217.157 57.7549 217.418 57.4635C217.694 57.1569 217.832 56.7582 217.832 56.2675V52.0355C217.832 51.5602 217.694 51.1692 217.418 50.8625C217.157 50.5559 216.812 50.4025 216.383 50.4025C215.954 50.4025 215.609 50.5559 215.348 50.8625C215.087 51.1539 214.957 51.5449 214.957 52.0355V56.2675C214.957 56.7582 215.087 57.1569 215.348 57.4635C215.609 57.7549 215.954 57.9005 216.383 57.9005Z" fill="#222389"/>
<path d="M206.455 60.2235C205.183 60.2235 204.178 59.8862 203.442 59.2115C202.722 58.5369 202.361 57.6245 202.361 56.4745V51.8515C202.361 50.7169 202.729 49.8122 203.465 49.1375C204.201 48.4475 205.198 48.1025 206.455 48.1025C207.728 48.1025 208.732 48.4475 209.468 49.1375C210.204 49.8122 210.572 50.7169 210.572 51.8515V56.4745C210.572 57.6245 210.204 58.5369 209.468 59.2115C208.748 59.8862 207.743 60.2235 206.455 60.2235ZM206.455 57.9005C206.885 57.9005 207.23 57.7549 207.49 57.4635C207.766 57.1569 207.904 56.7582 207.904 56.2675V52.0355C207.904 51.5602 207.766 51.1692 207.49 50.8625C207.23 50.5559 206.885 50.4025 206.455 50.4025C206.026 50.4025 205.681 50.5559 205.42 50.8625C205.16 51.1539 205.029 51.5449 205.029 52.0355V56.2675C205.029 56.7582 205.16 57.1569 205.42 57.4635C205.681 57.7549 206.026 57.9005 206.455 57.9005Z" fill="#222389"/>
<path d="M197.475 48.1025C198.471 48.1025 199.223 48.4398 199.729 49.1145C200.25 49.7738 200.51 50.7168 200.51 51.9435V59.7635C200.51 59.8401 200.48 59.9091 200.419 59.9705C200.373 60.0165 200.311 60.0395 200.235 60.0395H198.118C198.042 60.0395 197.973 60.0165 197.911 59.9705C197.865 59.9091 197.842 59.8401 197.842 59.7635V52.1505C197.842 51.5985 197.728 51.1691 197.498 50.8625C197.268 50.5558 196.938 50.4025 196.508 50.4025C196.064 50.4025 195.719 50.5635 195.474 50.8855C195.228 51.2075 195.105 51.6521 195.105 52.2195V59.7635C195.105 59.8401 195.075 59.9091 195.014 59.9705C194.968 60.0165 194.906 60.0395 194.829 60.0395H192.714C192.637 60.0395 192.568 60.0165 192.507 59.9705C192.461 59.9091 192.438 59.8401 192.438 59.7635V44.2155C192.438 44.1388 192.461 44.0775 192.507 44.0315C192.568 43.9701 192.637 43.9395 192.714 43.9395H194.829C194.906 43.9395 194.968 43.9701 195.014 44.0315C195.075 44.0775 195.105 44.1388 195.105 44.2155V49.0225C195.105 49.0685 195.121 49.0991 195.152 49.1145C195.198 49.1145 195.244 49.0838 195.29 49.0225C195.811 48.4091 196.539 48.1025 197.475 48.1025Z" fill="#222389"/>
<path d="M186.622 60.2235C185.364 60.2235 184.368 59.8862 183.632 59.2115C182.911 58.5369 182.551 57.6245 182.551 56.4745V51.8285C182.551 50.7092 182.911 49.8122 183.632 49.1375C184.368 48.4475 185.364 48.1025 186.622 48.1025C187.879 48.1025 188.876 48.4399 189.612 49.1145C190.348 49.7739 190.716 50.6172 190.716 51.6445V51.9665C190.716 52.0432 190.685 52.1122 190.624 52.1735C190.578 52.2195 190.516 52.2425 190.44 52.2425L188.324 52.3345C188.14 52.3345 188.048 52.2425 188.048 52.0585V51.8285C188.048 51.4452 187.91 51.1155 187.634 50.8395C187.373 50.5482 187.036 50.4025 186.622 50.4025C186.208 50.4025 185.87 50.5559 185.61 50.8625C185.349 51.1692 185.219 51.5602 185.219 52.0355V56.2905C185.219 56.7659 185.349 57.1569 185.61 57.4635C185.87 57.7702 186.208 57.9235 186.622 57.9235C187.036 57.9235 187.373 57.7855 187.634 57.5095C187.91 57.2182 188.048 56.8732 188.048 56.4745V56.2445C188.048 56.1679 188.071 56.1065 188.117 56.0605C188.178 55.9992 188.247 55.9685 188.324 55.9685L190.44 55.9915C190.516 55.9915 190.578 56.0222 190.624 56.0835C190.685 56.1295 190.716 56.1909 190.716 56.2675V56.6815C190.716 57.7395 190.348 58.5982 189.612 59.2575C188.876 59.9015 187.879 60.2235 186.622 60.2235Z" fill="#222389"/>
<path d="M176.74 60.2229C175.468 60.2229 174.44 59.8396 173.658 59.0729C172.876 58.3062 172.485 57.3019 172.485 56.0599V55.4619C172.485 55.3852 172.508 55.3239 172.554 55.2779C172.616 55.2165 172.685 55.1859 172.761 55.1859H174.854C174.931 55.1859 174.992 55.2165 175.038 55.2779C175.1 55.3239 175.13 55.3852 175.13 55.4619V55.9219C175.13 56.5199 175.276 57.0029 175.567 57.3709C175.874 57.7389 176.265 57.9229 176.74 57.9229C177.216 57.9229 177.607 57.7542 177.913 57.4169C178.22 57.0642 178.373 56.6042 178.373 56.0369C178.373 55.6382 178.289 55.2932 178.12 55.0019C177.952 54.7106 177.714 54.4345 177.407 54.1739C177.101 53.9132 176.61 53.5375 175.935 53.0469C175.169 52.4949 174.548 52.0042 174.072 51.5749C173.612 51.1455 173.221 50.6319 172.899 50.0339C172.593 49.4205 172.439 48.7152 172.439 47.9179C172.439 46.6452 172.823 45.6332 173.589 44.8819C174.356 44.1305 175.368 43.7549 176.625 43.7549C177.898 43.7549 178.925 44.1535 179.707 44.9509C180.489 45.7329 180.88 46.7756 180.88 48.0789V48.6309C180.88 48.7075 180.85 48.7765 180.788 48.8379C180.742 48.8839 180.681 48.9069 180.604 48.9069H178.534C178.458 48.9069 178.389 48.8839 178.327 48.8379C178.281 48.7765 178.258 48.7075 178.258 48.6309V48.0329C178.258 47.4349 178.105 46.9595 177.798 46.6069C177.507 46.2389 177.116 46.0549 176.625 46.0549C176.165 46.0549 175.79 46.2235 175.498 46.5609C175.207 46.8829 175.061 47.3352 175.061 47.9179C175.061 48.4699 175.215 48.9375 175.521 49.3209C175.843 49.7042 176.464 50.2332 177.384 50.9079C178.32 51.5979 179.025 52.1652 179.5 52.6099C179.976 53.0392 180.344 53.5146 180.604 54.0359C180.865 54.5572 180.995 55.1782 180.995 55.8989C180.995 57.2022 180.604 58.2526 179.822 59.0499C179.04 59.8319 178.013 60.2229 176.74 60.2229Z" fill="#222389"/>
<path d="M166.322 54.8645C166.322 54.9412 166.291 55.0102 166.23 55.0715C166.184 55.1175 166.122 55.1405 166.046 55.1405H160.963C160.886 55.1405 160.848 55.1789 160.848 55.2555V56.2905C160.848 56.7659 160.978 57.1569 161.239 57.4635C161.499 57.7702 161.837 57.9235 162.251 57.9235C162.603 57.9235 162.902 57.8162 163.148 57.6015C163.408 57.3715 163.577 57.0802 163.654 56.7275C163.7 56.5742 163.799 56.4975 163.953 56.4975L166 56.5895C166.076 56.5895 166.138 56.6202 166.184 56.6815C166.245 56.7275 166.268 56.7965 166.253 56.8885C166.145 57.9619 165.754 58.7899 165.08 59.3725C164.405 59.9399 163.462 60.2235 162.251 60.2235C160.993 60.2235 159.997 59.8939 159.261 59.2345C158.54 58.5599 158.18 57.6475 158.18 56.4975V51.8285C158.18 50.7092 158.54 49.8122 159.261 49.1375C159.997 48.4475 160.993 48.1025 162.251 48.1025C163.508 48.1025 164.497 48.4475 165.218 49.1375C165.954 49.8122 166.322 50.7092 166.322 51.8285V54.8645ZM162.251 50.4025C161.837 50.4025 161.499 50.5559 161.239 50.8625C160.978 51.1692 160.848 51.5602 160.848 52.0355V53.0705C160.848 53.1472 160.886 53.1855 160.963 53.1855H163.562C163.638 53.1855 163.677 53.1472 163.677 53.0705V52.0355C163.677 51.5449 163.546 51.1539 163.286 50.8625C163.025 50.5559 162.68 50.4025 162.251 50.4025Z" fill="#222389"/>
<path d="M156.796 49.8962C156.796 49.9729 156.765 50.0419 156.704 50.1032C156.658 50.1492 156.597 50.1722 156.52 50.1722H155.094C155.017 50.1722 154.979 50.2106 154.979 50.2872V56.3132C154.979 56.8499 155.079 57.2256 155.278 57.4402C155.477 57.6396 155.776 57.7316 156.175 57.7162H156.336C156.413 57.7162 156.474 57.7469 156.52 57.8082C156.581 57.8542 156.612 57.9156 156.612 57.9922V59.7632C156.612 59.8399 156.581 59.9089 156.52 59.9702C156.474 60.0162 156.413 60.0392 156.336 60.0392H155.554C154.511 60.0392 153.722 59.8476 153.185 59.4642C152.664 59.0809 152.403 58.3602 152.403 57.3022V50.2872C152.403 50.2106 152.365 50.1722 152.288 50.1722H151.483C151.406 50.1722 151.337 50.1492 151.276 50.1032C151.23 50.0419 151.207 49.9729 151.207 49.8962V48.5622C151.207 48.4856 151.23 48.4242 151.276 48.3782C151.337 48.3169 151.406 48.2862 151.483 48.2862H152.288C152.365 48.2862 152.403 48.2479 152.403 48.1712V45.6412C152.403 45.5646 152.426 45.5032 152.472 45.4572C152.533 45.3959 152.602 45.3652 152.679 45.3652H154.703C154.78 45.3652 154.841 45.3959 154.887 45.4572C154.948 45.5032 154.979 45.5646 154.979 45.6412V48.1712C154.979 48.2479 155.017 48.2862 155.094 48.2862H156.52C156.597 48.2862 156.658 48.3169 156.704 48.3782C156.765 48.4242 156.796 48.4856 156.796 48.5622V49.8962Z" fill="#222389"/>
<path d="M145.903 48.1025C147.114 48.1025 148.095 48.4552 148.847 49.1605C149.598 49.8659 149.974 50.7935 149.974 51.9435V59.7635C149.974 59.8402 149.943 59.9092 149.882 59.9705C149.836 60.0165 149.774 60.0395 149.698 60.0395H147.582C147.505 60.0395 147.436 60.0165 147.375 59.9705C147.329 59.9092 147.306 59.8402 147.306 59.7635V59.3265C147.306 59.2805 147.29 59.2499 147.26 59.2345C147.229 59.2192 147.198 59.2345 147.168 59.2805C146.631 59.9092 145.849 60.2235 144.822 60.2235C143.948 60.2235 143.173 59.9782 142.499 59.4875C141.839 58.9815 141.51 58.0692 141.51 56.7505C141.51 55.3705 141.908 54.3892 142.706 53.8065C143.518 53.2239 144.615 52.9325 145.995 52.9325H147.191C147.267 52.9325 147.306 52.8942 147.306 52.8175V52.2195C147.306 51.6675 147.168 51.2305 146.892 50.9085C146.616 50.5712 146.271 50.4025 145.857 50.4025C145.535 50.4025 145.266 50.5099 145.052 50.7245C144.837 50.9239 144.707 51.1999 144.661 51.5525C144.645 51.7365 144.546 51.8285 144.362 51.8285H142.131C141.947 51.8285 141.862 51.7365 141.878 51.5525C141.954 50.5099 142.361 49.6742 143.097 49.0455C143.848 48.4169 144.783 48.1025 145.903 48.1025ZM145.558 58.0155C146.018 58.0155 146.424 57.8699 146.777 57.5785C147.129 57.2872 147.306 56.8809 147.306 56.3595V55.0485C147.306 54.9719 147.267 54.9335 147.191 54.9335H145.995C145.473 54.9335 145.052 55.0792 144.73 55.3705C144.408 55.6465 144.247 56.0529 144.247 56.5895C144.247 57.0649 144.369 57.4252 144.615 57.6705C144.86 57.9005 145.174 58.0155 145.558 58.0155Z" fill="#222389"/>
<path d="M137.128 48.5621C137.128 48.4855 137.151 48.4241 137.197 48.3781C137.258 48.3168 137.327 48.2861 137.404 48.2861H139.52C139.596 48.2861 139.658 48.3168 139.704 48.3781C139.765 48.4241 139.796 48.4855 139.796 48.5621V59.7631C139.796 59.8398 139.765 59.9088 139.704 59.9701C139.658 60.0161 139.596 60.0391 139.52 60.0391H137.404C137.327 60.0391 137.258 60.0161 137.197 59.9701C137.151 59.9088 137.128 59.8398 137.128 59.7631V59.2571C137.128 59.2111 137.112 59.1805 137.082 59.1651C137.051 59.1498 137.02 59.1651 136.99 59.2111C136.545 59.8705 135.832 60.2001 134.851 60.2001C133.915 60.2001 133.156 59.9241 132.574 59.3721C132.006 58.8048 131.723 57.9385 131.723 56.7731V48.5621C131.723 48.4855 131.746 48.4241 131.792 48.3781C131.853 48.3168 131.922 48.2861 131.999 48.2861H134.115C134.191 48.2861 134.253 48.3168 134.299 48.3781C134.36 48.4241 134.391 48.4855 134.391 48.5621V56.1981C134.391 57.3481 134.835 57.9231 135.725 57.9231C136.169 57.9231 136.514 57.7621 136.76 57.4401C137.005 57.1028 137.128 56.6505 137.128 56.0831V48.5621Z" fill="#222389"/>
<path d="M127.043 44.2155C127.043 44.1388 127.066 44.0775 127.112 44.0315C127.173 43.9701 127.242 43.9395 127.319 43.9395H129.435C129.511 43.9395 129.573 43.9701 129.619 44.0315C129.68 44.0775 129.711 44.1388 129.711 44.2155V59.7635C129.711 59.8401 129.68 59.9091 129.619 59.9705C129.573 60.0165 129.511 60.0395 129.435 60.0395H127.319C127.242 60.0395 127.173 60.0165 127.112 59.9705C127.066 59.9091 127.043 59.8401 127.043 59.7635V59.4875C127.043 59.4415 127.027 59.4108 126.997 59.3955C126.966 59.3801 126.935 59.3878 126.905 59.4185C126.353 59.9551 125.663 60.2235 124.835 60.2235C123.807 60.2235 123.01 59.8861 122.443 59.2115C121.875 58.5368 121.592 57.6321 121.592 56.4975V51.8285C121.592 50.6631 121.875 49.7508 122.443 49.0915C123.025 48.4321 123.823 48.1025 124.835 48.1025C125.187 48.1025 125.548 48.1715 125.916 48.3095C126.284 48.4321 126.613 48.6391 126.905 48.9305C126.935 48.9611 126.966 48.9688 126.997 48.9535C127.027 48.9381 127.043 48.9075 127.043 48.8615V44.2155ZM125.663 57.9235C126.031 57.9235 126.337 57.8085 126.583 57.5785C126.828 57.3331 126.981 57.0111 127.043 56.6125V51.7135C126.981 51.3148 126.828 51.0005 126.583 50.7705C126.337 50.5251 126.031 50.4025 125.663 50.4025C125.233 50.4025 124.888 50.5558 124.628 50.8625C124.367 51.1538 124.237 51.5448 124.237 52.0355V56.2905C124.237 56.7811 124.367 57.1798 124.628 57.4865C124.888 57.7778 125.233 57.9235 125.663 57.9235Z" fill="#222389"/>
<path d="M115.805 48.1025C117.016 48.1025 117.998 48.4552 118.749 49.1605C119.5 49.8659 119.876 50.7935 119.876 51.9435V59.7635C119.876 59.8402 119.845 59.9092 119.784 59.9705C119.738 60.0165 119.677 60.0395 119.6 60.0395H117.484C117.407 60.0395 117.338 60.0165 117.277 59.9705C117.231 59.9092 117.208 59.8402 117.208 59.7635V59.3265C117.208 59.2805 117.193 59.2499 117.162 59.2345C117.131 59.2192 117.101 59.2345 117.07 59.2805C116.533 59.9092 115.751 60.2235 114.724 60.2235C113.85 60.2235 113.076 59.9782 112.401 59.4875C111.742 58.9815 111.412 58.0692 111.412 56.7505C111.412 55.3705 111.811 54.3892 112.608 53.8065C113.421 53.2239 114.517 52.9325 115.897 52.9325H117.093C117.17 52.9325 117.208 52.8942 117.208 52.8175V52.2195C117.208 51.6675 117.07 51.2305 116.794 50.9085C116.518 50.5712 116.173 50.4025 115.759 50.4025C115.437 50.4025 115.169 50.5099 114.954 50.7245C114.739 50.9239 114.609 51.1999 114.563 51.5525C114.548 51.7365 114.448 51.8285 114.264 51.8285H112.033C111.849 51.8285 111.765 51.7365 111.78 51.5525C111.857 50.5099 112.263 49.6742 112.999 49.0455C113.75 48.4169 114.686 48.1025 115.805 48.1025ZM115.46 58.0155C115.92 58.0155 116.326 57.8699 116.679 57.5785C117.032 57.2872 117.208 56.8809 117.208 56.3595V55.0485C117.208 54.9719 117.17 54.9335 117.093 54.9335H115.897C115.376 54.9335 114.954 55.0792 114.632 55.3705C114.31 55.6465 114.149 56.0529 114.149 56.5895C114.149 57.0649 114.272 57.4252 114.517 57.6705C114.762 57.9005 115.077 58.0155 115.46 58.0155Z" fill="#222389"/>
<path d="M109.491 48.1484C109.905 48.1484 110.227 48.2251 110.457 48.3784C110.579 48.4551 110.625 48.5701 110.595 48.7234L110.227 50.8624C110.211 51.0464 110.104 51.1001 109.905 51.0234C109.69 50.9621 109.491 50.9314 109.307 50.9314C109.123 50.9314 108.954 50.9544 108.801 51.0004C108.371 51.0618 108.019 51.3071 107.743 51.7364C107.482 52.1504 107.352 52.6488 107.352 53.2314V59.7404C107.352 59.8171 107.321 59.8861 107.26 59.9474C107.214 59.9934 107.152 60.0164 107.076 60.0164H104.96C104.883 60.0164 104.814 59.9934 104.753 59.9474C104.707 59.8861 104.684 59.8171 104.684 59.7404V48.5624C104.684 48.4858 104.707 48.4244 104.753 48.3784C104.814 48.3171 104.883 48.2864 104.96 48.2864H107.076C107.152 48.2864 107.214 48.3171 107.26 48.3784C107.321 48.4244 107.352 48.4858 107.352 48.5624V49.6204C107.352 49.6818 107.367 49.7201 107.398 49.7354C107.428 49.7354 107.451 49.7048 107.467 49.6434C107.881 48.6468 108.555 48.1484 109.491 48.1484Z" fill="#222389"/>
<path d="M98.2908 60.2229C96.9875 60.2229 95.9371 59.8472 95.1398 59.0959C94.3578 58.3292 93.9668 57.3172 93.9668 56.0599V47.9179C93.9668 46.6606 94.3578 45.6562 95.1398 44.9049C95.9371 44.1382 96.9875 43.7549 98.2908 43.7549C99.5941 43.7549 100.644 44.1382 101.442 44.9049C102.254 45.6562 102.661 46.6682 102.661 47.9409V48.8379C102.661 48.9145 102.63 48.9836 102.569 49.0449C102.523 49.0909 102.461 49.1139 102.385 49.1139H100.269C100.192 49.1139 100.123 49.0909 100.062 49.0449C100.016 48.9836 99.9928 48.9145 99.9928 48.8379V47.8949C99.9928 47.3429 99.8318 46.8982 99.5098 46.5609C99.2031 46.2235 98.7968 46.0549 98.2908 46.0549C97.7848 46.0549 97.3785 46.2235 97.0718 46.5609C96.7651 46.8982 96.6118 47.3429 96.6118 47.8949V56.0829C96.6118 56.6349 96.7651 57.0795 97.0718 57.4169C97.3785 57.7542 97.7848 57.9229 98.2908 57.9229C98.7968 57.9229 99.2031 57.7542 99.5098 57.4169C99.8318 57.0795 99.9928 56.6349 99.9928 56.0829V53.8749C99.9928 53.7982 99.9545 53.7599 99.8778 53.7599H98.4748C98.3981 53.7599 98.3291 53.7369 98.2678 53.6909C98.2218 53.6296 98.1988 53.5605 98.1988 53.4839V51.8049C98.1988 51.7282 98.2218 51.6669 98.2678 51.6209C98.3291 51.5596 98.3981 51.5289 98.4748 51.5289H102.385C102.461 51.5289 102.523 51.5596 102.569 51.6209C102.63 51.6669 102.661 51.7282 102.661 51.8049V56.0599C102.661 57.3172 102.254 58.3292 101.442 59.0959C100.644 59.8472 99.5941 60.2229 98.2908 60.2229Z" fill="#222389"/>
<path d="M217.702 34.6157C217.672 34.6157 217.641 34.585 217.61 34.5237C217.58 34.4777 217.564 34.4164 217.564 34.3397V32.6837C217.564 32.607 217.587 32.538 217.633 32.4767C217.679 32.4307 217.733 32.4077 217.794 32.4077C218.3 32.3924 218.699 32.3234 218.99 32.2007C219.282 32.0934 219.512 31.871 219.68 31.5337C219.864 31.2117 219.995 30.7364 220.071 30.1077L220.048 29.9697L217.15 18.5617V18.4697C217.15 18.3317 217.235 18.2627 217.403 18.2627H219.657C219.841 18.2627 219.941 18.347 219.956 18.5157L221.359 26.1287C221.375 26.1747 221.398 26.1977 221.428 26.1977C221.459 26.1977 221.482 26.1747 221.497 26.1287L222.854 18.5157C222.87 18.347 222.969 18.2627 223.153 18.2627L225.43 18.3087C225.645 18.3087 225.729 18.4084 225.683 18.6077L222.601 30.6827C222.31 31.7714 222.003 32.584 221.681 33.1207C221.359 33.6574 220.907 34.0407 220.324 34.2707C219.742 34.5007 218.906 34.6157 217.817 34.6157H217.702Z" fill="#222389"/>
<path d="M216.273 19.8962C216.273 19.9729 216.242 20.0419 216.181 20.1032C216.135 20.1492 216.073 20.1722 215.997 20.1722H214.571C214.494 20.1722 214.456 20.2106 214.456 20.2872V26.3132C214.456 26.8499 214.555 27.2256 214.755 27.4402C214.954 27.6396 215.253 27.7316 215.652 27.7162H215.813C215.889 27.7162 215.951 27.7469 215.997 27.8082C216.058 27.8542 216.089 27.9156 216.089 27.9922V29.7632C216.089 29.8399 216.058 29.9089 215.997 29.9702C215.951 30.0162 215.889 30.0392 215.813 30.0392H215.031C213.988 30.0392 213.198 29.8476 212.662 29.4642C212.14 29.0809 211.88 28.3602 211.88 27.3022V20.2872C211.88 20.2106 211.841 20.1722 211.765 20.1722H210.96C210.883 20.1722 210.814 20.1492 210.753 20.1032C210.707 20.0419 210.684 19.9729 210.684 19.8962V18.5622C210.684 18.4856 210.707 18.4242 210.753 18.3782C210.814 18.3169 210.883 18.2862 210.96 18.2862H211.765C211.841 18.2862 211.88 18.2479 211.88 18.1712V15.6412C211.88 15.5646 211.903 15.5032 211.949 15.4572C212.01 15.3959 212.079 15.3652 212.156 15.3652H214.18C214.256 15.3652 214.318 15.3959 214.364 15.4572C214.425 15.5032 214.456 15.5646 214.456 15.6412V18.1712C214.456 18.2479 214.494 18.2862 214.571 18.2862H215.997C216.073 18.2862 216.135 18.3169 216.181 18.3782C216.242 18.4242 216.273 18.4856 216.273 18.5622V19.8962Z" fill="#222389"/>
<path d="M207.811 16.6762C207.335 16.6762 206.944 16.5228 206.638 16.2162C206.331 15.9095 206.178 15.5185 206.178 15.0432C206.178 14.5678 206.331 14.1768 206.638 13.8702C206.944 13.5635 207.335 13.4102 207.811 13.4102C208.286 13.4102 208.669 13.5635 208.961 13.8702C209.267 14.1768 209.421 14.5678 209.421 15.0432C209.421 15.5185 209.267 15.9095 208.961 16.2162C208.654 16.5228 208.271 16.6762 207.811 16.6762ZM206.776 30.0392C206.699 30.0392 206.63 30.0162 206.569 29.9702C206.523 29.9088 206.5 29.8398 206.5 29.7632V18.5622C206.5 18.4855 206.523 18.4242 206.569 18.3782C206.63 18.3168 206.699 18.2862 206.776 18.2862H208.892C208.968 18.2862 209.03 18.3168 209.076 18.3782C209.137 18.4242 209.168 18.4855 209.168 18.5622V29.7632C209.168 29.8398 209.137 29.9088 209.076 29.9702C209.03 30.0162 208.968 30.0392 208.892 30.0392H206.776Z" fill="#222389"/>
<path d="M200.856 30.1774C199.645 30.1774 198.679 29.8861 197.958 29.3034C197.237 28.7208 196.877 27.9311 196.877 26.9344V26.7734C196.877 26.6968 196.9 26.6354 196.946 26.5894C197.007 26.5281 197.076 26.4974 197.153 26.4974H199.131C199.208 26.4974 199.269 26.5281 199.315 26.5894C199.376 26.6354 199.407 26.6968 199.407 26.7734V26.8884C199.407 27.2564 199.545 27.5631 199.821 27.8084C200.112 28.0538 200.465 28.1764 200.879 28.1764C201.278 28.1764 201.592 28.0614 201.822 27.8314C202.052 27.6014 202.167 27.3101 202.167 26.9574C202.167 26.6508 202.067 26.3978 201.868 26.1984C201.669 25.9838 201.454 25.8228 201.224 25.7154C200.994 25.6081 200.58 25.4318 199.982 25.1864C199.108 24.8491 198.387 24.4198 197.82 23.8984C197.268 23.3771 196.992 22.6028 196.992 21.5754C196.992 20.5021 197.329 19.6664 198.004 19.0684C198.694 18.4551 199.622 18.1484 200.787 18.1484C201.983 18.1484 202.926 18.4704 203.616 19.1144C204.321 19.7431 204.674 20.5941 204.674 21.6674C204.674 21.7441 204.643 21.8131 204.582 21.8744C204.536 21.9204 204.475 21.9434 204.398 21.9434H202.466C202.389 21.9434 202.32 21.9204 202.259 21.8744C202.213 21.8131 202.19 21.7441 202.19 21.6674V21.5294C202.19 21.1614 202.06 20.8548 201.799 20.6094C201.554 20.3641 201.239 20.2414 200.856 20.2414C200.457 20.2414 200.135 20.3718 199.89 20.6324C199.66 20.8778 199.545 21.1768 199.545 21.5294C199.545 21.8208 199.637 22.0661 199.821 22.2654C200.005 22.4648 200.212 22.6258 200.442 22.7484C200.672 22.8558 201.055 23.0244 201.592 23.2544C202.236 23.5151 202.773 23.7758 203.202 24.0364C203.647 24.2818 204.03 24.6421 204.352 25.1174C204.689 25.5774 204.858 26.1524 204.858 26.8424C204.858 27.8698 204.498 28.6824 203.777 29.2804C203.056 29.8784 202.083 30.1774 200.856 30.1774Z" fill="#222389"/>
<path d="M194.842 18.1484C195.256 18.1484 195.578 18.2251 195.808 18.3784C195.931 18.4551 195.977 18.5701 195.946 18.7234L195.578 20.8624C195.563 21.0464 195.455 21.1001 195.256 21.0234C195.041 20.9621 194.842 20.9314 194.658 20.9314C194.474 20.9314 194.305 20.9544 194.152 21.0004C193.723 21.0618 193.37 21.3071 193.094 21.7364C192.833 22.1504 192.703 22.6488 192.703 23.2314V29.7404C192.703 29.8171 192.672 29.8861 192.611 29.9474C192.565 29.9934 192.504 30.0164 192.427 30.0164H190.311C190.234 30.0164 190.165 29.9934 190.104 29.9474C190.058 29.8861 190.035 29.8171 190.035 29.7404V18.5624C190.035 18.4858 190.058 18.4244 190.104 18.3784C190.165 18.3171 190.234 18.2864 190.311 18.2864H192.427C192.504 18.2864 192.565 18.3171 192.611 18.3784C192.672 18.4244 192.703 18.4858 192.703 18.5624V19.6204C192.703 19.6818 192.718 19.7201 192.749 19.7354C192.78 19.7354 192.803 19.7048 192.818 19.6434C193.232 18.6468 193.907 18.1484 194.842 18.1484Z" fill="#222389"/>
<path d="M188.199 24.8645C188.199 24.9412 188.168 25.0102 188.107 25.0715C188.061 25.1175 187.999 25.1405 187.923 25.1405H182.84C182.763 25.1405 182.725 25.1789 182.725 25.2555V26.2905C182.725 26.7659 182.855 27.1569 183.116 27.4635C183.376 27.7702 183.714 27.9235 184.128 27.9235C184.48 27.9235 184.779 27.8162 185.025 27.6015C185.285 27.3715 185.454 27.0802 185.531 26.7275C185.577 26.5742 185.676 26.4975 185.83 26.4975L187.877 26.5895C187.953 26.5895 188.015 26.6202 188.061 26.6815C188.122 26.7275 188.145 26.7965 188.13 26.8885C188.022 27.9619 187.631 28.7899 186.957 29.3725C186.282 29.9399 185.339 30.2235 184.128 30.2235C182.87 30.2235 181.874 29.8939 181.138 29.2345C180.417 28.5599 180.057 27.6475 180.057 26.4975V21.8285C180.057 20.7092 180.417 19.8122 181.138 19.1375C181.874 18.4475 182.87 18.1025 184.128 18.1025C185.385 18.1025 186.374 18.4475 187.095 19.1375C187.831 19.8122 188.199 20.7092 188.199 21.8285V24.8645ZM184.128 20.4025C183.714 20.4025 183.376 20.5559 183.116 20.8625C182.855 21.1692 182.725 21.5602 182.725 22.0355V23.0705C182.725 23.1472 182.763 23.1855 182.84 23.1855H185.439C185.515 23.1855 185.554 23.1472 185.554 23.0705V22.0355C185.554 21.5449 185.423 21.1539 185.163 20.8625C184.902 20.5559 184.557 20.4025 184.128 20.4025Z" fill="#222389"/>
<path d="M173.495 30.0387C173.327 30.0387 173.219 29.962 173.173 29.8087L170.367 18.5617V18.4697C170.367 18.3317 170.452 18.2627 170.62 18.2627H172.966C173.15 18.2627 173.25 18.347 173.265 18.5157L174.645 25.6687C174.661 25.7147 174.684 25.7377 174.714 25.7377C174.745 25.7377 174.768 25.7147 174.783 25.6687L176.14 18.5157C176.156 18.347 176.255 18.2627 176.439 18.2627L178.785 18.3087C179 18.3087 179.084 18.4084 179.038 18.6077L176.255 29.8087C176.209 29.962 176.102 30.0387 175.933 30.0387H173.495Z" fill="#222389"/>
<path d="M167.449 16.6762C166.974 16.6762 166.583 16.5228 166.276 16.2162C165.97 15.9095 165.816 15.5185 165.816 15.0432C165.816 14.5678 165.97 14.1768 166.276 13.8702C166.583 13.5635 166.974 13.4102 167.449 13.4102C167.925 13.4102 168.308 13.5635 168.599 13.8702C168.906 14.1768 169.059 14.5678 169.059 15.0432C169.059 15.5185 168.906 15.9095 168.599 16.2162C168.293 16.5228 167.909 16.6762 167.449 16.6762ZM166.414 30.0392C166.338 30.0392 166.269 30.0162 166.207 29.9702C166.161 29.9088 166.138 29.8398 166.138 29.7632V18.5622C166.138 18.4855 166.161 18.4242 166.207 18.3782C166.269 18.3168 166.338 18.2862 166.414 18.2862H168.53C168.607 18.2862 168.668 18.3168 168.714 18.3782C168.776 18.4242 168.806 18.4855 168.806 18.5622V29.7632C168.806 29.8398 168.776 29.9088 168.714 29.9702C168.668 30.0162 168.607 30.0392 168.53 30.0392H166.414Z" fill="#222389"/>
<path d="M160.976 18.1025C161.973 18.1025 162.724 18.4399 163.23 19.1145C163.752 19.7739 164.012 20.7169 164.012 21.9435V29.7635C164.012 29.8402 163.982 29.9092 163.92 29.9705C163.874 30.0165 163.813 30.0395 163.736 30.0395H161.62C161.544 30.0395 161.475 30.0165 161.413 29.9705C161.367 29.9092 161.344 29.8402 161.344 29.7635V22.1505C161.344 21.5985 161.229 21.1692 160.999 20.8625C160.769 20.5559 160.44 20.4025 160.01 20.4025C159.566 20.4025 159.221 20.5635 158.975 20.8855C158.73 21.2075 158.607 21.6522 158.607 22.2195V29.7635C158.607 29.8402 158.577 29.9092 158.515 29.9705C158.469 30.0165 158.408 30.0395 158.331 30.0395H156.215C156.139 30.0395 156.07 30.0165 156.008 29.9705C155.962 29.9092 155.939 29.8402 155.939 29.7635V18.5625C155.939 18.4859 155.962 18.4245 156.008 18.3785C156.07 18.3172 156.139 18.2865 156.215 18.2865H158.331C158.408 18.2865 158.469 18.3172 158.515 18.3785C158.577 18.4245 158.607 18.4859 158.607 18.5625V19.0225C158.607 19.0685 158.623 19.0992 158.653 19.1145C158.699 19.1145 158.745 19.0839 158.791 19.0225C159.313 18.4092 160.041 18.1025 160.976 18.1025Z" fill="#222389"/>
<path d="M149.394 30.2235C148.075 30.2235 147.017 29.8018 146.22 28.9585C145.438 28.0998 145.047 26.9728 145.047 25.5775V14.2155C145.047 14.1388 145.07 14.0775 145.116 14.0315C145.177 13.9701 145.246 13.9395 145.323 13.9395H147.439C147.516 13.9395 147.577 13.9701 147.623 14.0315C147.684 14.0775 147.715 14.1388 147.715 14.2155V25.8535C147.715 26.4668 147.868 26.9651 148.175 27.3485C148.482 27.7318 148.888 27.9235 149.394 27.9235C149.9 27.9235 150.306 27.7318 150.613 27.3485C150.92 26.9651 151.073 26.4668 151.073 25.8535V14.2155C151.073 14.1388 151.096 14.0775 151.142 14.0315C151.203 13.9701 151.272 13.9395 151.349 13.9395H153.465C153.542 13.9395 153.603 13.9701 153.649 14.0315C153.71 14.0775 153.741 14.1388 153.741 14.2155V25.5775C153.741 26.9728 153.342 28.0998 152.545 28.9585C151.748 29.8018 150.697 30.2235 149.394 30.2235Z" fill="#222389"/>
<path d="M134.332 30.2235C133.06 30.2235 132.055 29.8862 131.319 29.2115C130.599 28.5369 130.238 27.6245 130.238 26.4745V21.8515C130.238 20.7169 130.606 19.8122 131.342 19.1375C132.078 18.4475 133.075 18.1025 134.332 18.1025C135.605 18.1025 136.609 18.4475 137.345 19.1375C138.081 19.8122 138.449 20.7169 138.449 21.8515V26.4745C138.449 27.6245 138.081 28.5369 137.345 29.2115C136.625 29.8862 135.62 30.2235 134.332 30.2235ZM134.332 27.9005C134.762 27.9005 135.107 27.7549 135.367 27.4635C135.643 27.1569 135.781 26.7582 135.781 26.2675V22.0355C135.781 21.5602 135.643 21.1692 135.367 20.8625C135.107 20.5559 134.762 20.4025 134.332 20.4025C133.903 20.4025 133.558 20.5559 133.297 20.8625C133.037 21.1539 132.906 21.5449 132.906 22.0355V26.2675C132.906 26.7582 133.037 27.1569 133.297 27.4635C133.558 27.7549 133.903 27.9005 134.332 27.9005Z" fill="#222389"/>
<path d="M128.855 19.8962C128.855 19.9729 128.824 20.0419 128.763 20.1032C128.717 20.1492 128.655 20.1722 128.579 20.1722H127.153C127.076 20.1722 127.038 20.2106 127.038 20.2872V26.3132C127.038 26.8499 127.137 27.2256 127.337 27.4402C127.536 27.6396 127.835 27.7316 128.234 27.7162H128.395C128.471 27.7162 128.533 27.7469 128.579 27.8082C128.64 27.8542 128.671 27.9156 128.671 27.9922V29.7632C128.671 29.8399 128.64 29.9089 128.579 29.9702C128.533 30.0162 128.471 30.0392 128.395 30.0392H127.613C126.57 30.0392 125.78 29.8476 125.244 29.4642C124.722 29.0809 124.462 28.3602 124.462 27.3022V20.2872C124.462 20.2106 124.423 20.1722 124.347 20.1722H123.542C123.465 20.1722 123.396 20.1492 123.335 20.1032C123.289 20.0419 123.266 19.9729 123.266 19.8962V18.5622C123.266 18.4856 123.289 18.4242 123.335 18.3782C123.396 18.3169 123.465 18.2862 123.542 18.2862H124.347C124.423 18.2862 124.462 18.2479 124.462 18.1712V15.6412C124.462 15.5646 124.485 15.5032 124.531 15.4572C124.592 15.3959 124.661 15.3652 124.738 15.3652H126.762C126.838 15.3652 126.9 15.3959 126.946 15.4572C127.007 15.5032 127.038 15.5646 127.038 15.6412V18.1712C127.038 18.2479 127.076 18.2862 127.153 18.2862H128.579C128.655 18.2862 128.717 18.3169 128.763 18.3782C128.824 18.4242 128.855 18.4856 128.855 18.5622V19.8962Z" fill="#222389"/>
<path d="M117.914 30.2235C116.642 30.2235 115.637 29.8862 114.901 29.2115C114.181 28.5369 113.82 27.6245 113.82 26.4745V21.8515C113.82 20.7169 114.188 19.8122 114.924 19.1375C115.66 18.4475 116.657 18.1025 117.914 18.1025C119.187 18.1025 120.191 18.4475 120.927 19.1375C121.663 19.8122 122.031 20.7169 122.031 21.8515V26.4745C122.031 27.6245 121.663 28.5369 120.927 29.2115C120.207 29.8862 119.202 30.2235 117.914 30.2235ZM117.914 27.9005C118.344 27.9005 118.689 27.7549 118.949 27.4635C119.225 27.1569 119.363 26.7582 119.363 26.2675V22.0355C119.363 21.5602 119.225 21.1692 118.949 20.8625C118.689 20.5559 118.344 20.4025 117.914 20.4025C117.485 20.4025 117.14 20.5559 116.879 20.8625C116.619 21.1539 116.488 21.5449 116.488 22.0355V26.2675C116.488 26.7582 116.619 27.1569 116.879 27.4635C117.14 27.7549 117.485 27.9005 117.914 27.9005Z" fill="#222389"/>
<path d="M104.882 34.6157C104.851 34.6157 104.821 34.585 104.79 34.5237C104.759 34.4777 104.744 34.4164 104.744 34.3397V32.6837C104.744 32.607 104.767 32.538 104.813 32.4767C104.859 32.4307 104.913 32.4077 104.974 32.4077C105.48 32.3924 105.879 32.3234 106.17 32.2007C106.461 32.0934 106.691 31.871 106.86 31.5337C107.044 31.2117 107.174 30.7364 107.251 30.1077L107.228 29.9697L104.33 18.5617V18.4697C104.33 18.3317 104.414 18.2627 104.583 18.2627H106.837C107.021 18.2627 107.121 18.347 107.136 18.5157L108.539 26.1287C108.554 26.1747 108.577 26.1977 108.608 26.1977C108.639 26.1977 108.662 26.1747 108.677 26.1287L110.034 18.5157C110.049 18.347 110.149 18.2627 110.333 18.2627L112.61 18.3087C112.825 18.3087 112.909 18.4084 112.863 18.6077L109.781 30.6827C109.49 31.7714 109.183 32.584 108.861 33.1207C108.539 33.6574 108.087 34.0407 107.504 34.2707C106.921 34.5007 106.086 34.6157 104.997 34.6157H104.882Z" fill="#222389"/>
<path d="M94.5182 30.0395C94.4415 30.0395 94.3725 30.0165 94.3112 29.9705C94.2652 29.9091 94.2422 29.8401 94.2422 29.7635V14.2155C94.2422 14.1388 94.2652 14.0775 94.3112 14.0315C94.3725 13.9701 94.4415 13.9395 94.5182 13.9395H96.6342C96.7109 13.9395 96.7722 13.9701 96.8182 14.0315C96.8795 14.0775 96.9102 14.1388 96.9102 14.2155V20.5635C96.9102 20.6248 96.9255 20.6631 96.9562 20.6785C96.9869 20.6785 97.0175 20.6555 97.0482 20.6095L100.498 14.1465C100.575 14.0085 100.69 13.9395 100.843 13.9395H103.12C103.228 13.9395 103.297 13.9701 103.327 14.0315C103.358 14.0928 103.35 14.1695 103.304 14.2615L99.8542 20.7245C99.8389 20.7858 99.8312 20.8318 99.8312 20.8625L103.557 29.7175C103.573 29.7481 103.58 29.7941 103.58 29.8555C103.58 29.9781 103.504 30.0395 103.35 30.0395H101.073C100.905 30.0395 100.797 29.9705 100.751 29.8325L98.0372 23.1855C98.0219 23.1395 97.9989 23.1241 97.9682 23.1395C97.9375 23.1395 97.9069 23.1548 97.8762 23.1855L96.9562 24.7265C96.9255 24.7878 96.9102 24.8338 96.9102 24.8645V29.7635C96.9102 29.8401 96.8795 29.9091 96.8182 29.9705C96.7722 30.0165 96.7109 30.0395 96.6342 30.0395H94.5182Z" fill="#222389"/>
<defs>
<clipPath id="clip0_1392_19799">
<rect width="78.5173" height="60.2003" fill="white"/>
</clipPath>
</defs>
</svg>
